{
    "asset" : {
        "generator" : "Khronos glTF Blender I/O v1.6.16",
        "version" : "2.0"
    },
    "scene" : 0,
    "scenes" : [
        {
            "name" : "Scene",
            "nodes" : [
                5
            ]
        }
    ],
    "nodes" : [
        {
            "name" : "root.001",
            "rotation" : [
                -3.552713678800501e-15,
                -1.1920927533992653e-07,
                5.048709793414476e-29,
                1
            ],
            "scale" : [
                1,
                0.9999999403953552,
                0.9999999403953552
            ],
            "translation" : [
                0,
                1.9979934692382812,
                0
            ]
        },
        {
            "name" : "lowerJaw",
            "rotation" : [
                0.8397008776664734,
                6.473653257899059e-08,
                3.003003996582265e-07,
                0.5430492162704468
            ],
            "translation" : [
                0,
                1.9979935884475708,
                0
            ]
        },
        {
            "name" : "upperJaw",
            "rotation" : [
                0.7180216312408447,
                1.6817592722873087e-06,
                1.906107968352444e-06,
                0.6960208415985107
            ],
            "scale" : [
                1,
                1.0000001192092896,
                1.0000001192092896
            ],
            "translation" : [
                9.094947017729282e-13,
                1.9979935884475708,
                4.1814269477769943e-19
            ]
        },
        {
            "children" : [
                0,
                1,
                2
            ],
            "name" : "root",
            "rotation" : [
                -2.9802322387695312e-08,
                1.1920927533992653e-07,
                4.235164736271502e-22,
                1
            ],
            "scale" : [
                1,
                0.9999998807907104,
                0.9999998807907104
            ]
        },
        {
            "mesh" : 0,
            "name" : "Cube",
            "skin" : 0
        },
        {
            "children" : [
                4,
                3
            ],
            "name" : "faceRig",
            "translation" : [
                -0.0016077794134616852,
                3.0184271335601807,
                0.3113449811935425
            ]
        }
    ],
    "materials" : [
        {
            "doubleSided" : true,
            "name" : "Material.001",
            "pbrMetallicRoughness" : {
                "baseColorTexture" : {
                    "index" : 0
                },
                "metallicFactor" : 0,
                "roughnessFactor" : 0.5
            }
        }
    ],
    "meshes" : [
        {
            "name" : "Cube.001",
            "primitives" : [
                {
                    "attributes" : {
                        "POSITION" : 0,
                        "NORMAL" : 1,
                        "TEXCOORD_0" : 2,
                        "JOINTS_0" : 3,
                        "WEIGHTS_0" : 4
                    },
                    "indices" : 5,
                    "material" : 0
                }
            ]
        }
    ],
    "textures" : [
        {
            "sampler" : 0,
            "source" : 0
        }
    ],
    "images" : [
        {
            "bufferView" : 6,
            "mimeType" : "image/png",
            "name" : "na16-8x"
        }
    ],
    "skins" : [
        {
            "inverseBindMatrices" : 6,
            "joints" : [
                3,
                0,
                1,
                2
            ],
            "name" : "faceRig"
        }
    ],
    "accessors" : [
        {
            "bufferView" : 0,
            "componentType" : 5126,
            "count" : 1848,
            "max" : [
                4.349950790405273,
                9.122669219970703,
                4.195608615875244
            ],
            "min" : [
                -4.353166103363037,
                2.883331060409546,
                -1.6877920627593994
            ],
            "type" : "VEC3"
        },
        {
            "bufferView" : 1,
            "componentType" : 5126,
            "count" : 1848,
            "type" : "VEC3"
        },
        {
            "bufferView" : 2,
            "componentType" : 5126,
            "count" : 1848,
            "type" : "VEC2"
        },
        {
            "bufferView" : 3,
            "componentType" : 5121,
            "count" : 1848,
            "type" : "VEC4"
        },
        {
            "bufferView" : 4,
            "componentType" : 5126,
            "count" : 1848,
            "type" : "VEC4"
        },
        {
            "bufferView" : 5,
            "componentType" : 5123,
            "count" : 2976,
            "type" : "SCALAR"
        },
        {
            "bufferView" : 7,
            "componentType" : 5126,
            "count" : 4,
            "type" : "MAT4"
        }
    ],
    "bufferViews" : [
        {
            "buffer" : 0,
            "byteLength" : 22176,
            "byteOffset" : 0
        },
        {
            "buffer" : 0,
            "byteLength" : 22176,
            "byteOffset" : 22176
        },
        {
            "buffer" : 0,
            "byteLength" : 14784,
            "byteOffset" : 44352
        },
        {
            "buffer" : 0,
            "byteLength" : 7392,
            "byteOffset" : 59136
        },
        {
            "buffer" : 0,
            "byteLength" : 29568,
            "byteOffset" : 66528
        },
        {
            "buffer" : 0,
            "byteLength" : 5952,
            "byteOffset" : 96096
        },
        {
            "buffer" : 0,
            "byteLength" : 194,
            "byteOffset" : 102048
        },
        {
            "buffer" : 0,
            "byteLength" : 256,
            "byteOffset" : 102244
        }
    ],
    "samplers" : [
        {
            "magFilter" : 9729,
            "minFilter" : 9987
        }
    ],
    "buffers" : [
        {
            "byteLength" : 102500,
            "uri" : "data:application/octet-stream;base64,"
        }
    ]
}
