{
    "asset" : {
        "generator" : "Khronos glTF Blender I/O v1.6.16",
        "version" : "2.0"
    },
    "scene" : 0,
    "scenes" : [
        {
            "name" : "Scene",
            "nodes" : [
                0,
                1,
                2,
                3,
                4,
                5,
                6,
                7,
                8
            ]
        }
    ],
    "nodes" : [
        {
            "mesh" : 0,
            "name" : "Plane",
            "rotation" : [
                0.7071067690849304,
                0,
                0,
                0.7071068286895752
            ],
            "scale" : [
                0.9599999785423279,
                1,
                1
            ],
            "translation" : [
                -3,
                1,
                0
            ]
        },
        {
            "mesh" : 1,
            "name" : "Plane.001",
            "rotation" : [
                0.5,
                -0.5,
                0.4999999701976776,
                0.5000000596046448
            ],
            "scale" : [
                2,
                1,
                1
            ],
            "translation" : [
                0,
                1,
                2
            ]
        },
        {
            "mesh" : 2,
            "name" : "Plane.002",
            "rotation" : [
                0.7071068286895752,
                0,
                0.7071068286895752,
                8.007761920225676e-08
            ],
            "scale" : [
                2,
                1,
                2
            ],
            "translation" : [
                -2,
                0,
                2
            ]
        },
        {
            "mesh" : 3,
            "name" : "window frame",
            "scale" : [
                0.05633101984858513,
                0.02583177387714386,
                0.031379085034132004
            ],
            "translation" : [
                -2.0058469772338867,
                1.6072371006011963,
                0.013695243746042252
            ]
        },
        {
            "mesh" : 4,
            "name" : "Cube",
            "scale" : [
                0.07989111542701721,
                -1.0407685041427612,
                0.06638462096452713
            ],
            "translation" : [
                -0.06387726962566376,
                0.9697736501693726,
                0.031370509415864944
            ]
        },
        {
            "mesh" : 5,
            "name" : "Cube.001",
            "scale" : [
                1.9848819971084595,
                -0.06285522878170013,
                0.06638462096452713
            ],
            "translation" : [
                -1.9869091510772705,
                1.9477006196975708,
                0.03560370206832886
            ]
        },
        {
            "mesh" : 6,
            "name" : "Cube.002",
            "rotation" : [
                0,
                -0.7071067690849304,
                0,
                0.7071068286895752
            ],
            "scale" : [
                1.9848819971084595,
                -0.06285522878170013,
                0.06638462096452713
            ],
            "translation" : [
                -0.0651802271604538,
                1.9477006196975708,
                2.0211825370788574
            ]
        },
        {
            "mesh" : 7,
            "name" : "Cube.003",
            "scale" : [
                0.21264122426509857,
                0.4485757052898407,
                1.6617177724838257
            ],
            "translation" : [
                -0.7995550036430359,
                0.41499829292297363,
                2.5514211654663086
            ]
        },
        {
            "mesh" : 8,
            "name" : "Plane.003",
            "rotation" : [
                -0.2562065124511719,
                0,
                0,
                0.9666221737861633
            ],
            "scale" : [
                1.5474236011505127,
                1,
                1
            ],
            "translation" : [
                -2.414299964904785,
                2.362931728363037,
                0.5791672468185425
            ]
        }
    ],
    "materials" : [
        {
            "doubleSided" : true,
            "name" : "Material.001",
            "pbrMetallicRoughness" : {
                "baseColorTexture" : {
                    "index" : 0
                },
                "metallicFactor" : 0,
                "roughnessFactor" : 0.5
            }
        }
    ],
    "meshes" : [
        {
            "name" : "Plane",
            "primitives" : [
                {
                    "attributes" : {
                        "POSITION" : 0,
                        "NORMAL" : 1,
                        "TEXCOORD_0" : 2
                    },
                    "indices" : 3,
                    "material" : 0
                }
            ]
        },
        {
            "name" : "Plane.001",
            "primitives" : [
                {
                    "attributes" : {
                        "POSITION" : 4,
                        "NORMAL" : 5,
                        "TEXCOORD_0" : 6
                    },
                    "indices" : 7,
                    "material" : 0
                }
            ]
        },
        {
            "name" : "Plane.002",
            "primitives" : [
                {
                    "attributes" : {
                        "POSITION" : 8,
                        "NORMAL" : 9,
                        "TEXCOORD_0" : 10
                    },
                    "indices" : 7,
                    "material" : 0
                }
            ]
        },
        {
            "name" : "Cube.001",
            "primitives" : [
                {
                    "attributes" : {
                        "POSITION" : 11,
                        "NORMAL" : 12,
                        "TEXCOORD_0" : 13
                    },
                    "indices" : 14,
                    "material" : 0
                }
            ]
        },
        {
            "name" : "Cube",
            "primitives" : [
                {
                    "attributes" : {
                        "POSITION" : 15,
                        "NORMAL" : 16,
                        "TEXCOORD_0" : 17
                    },
                    "indices" : 18,
                    "material" : 0
                }
            ]
        },
        {
            "name" : "Cube.002",
            "primitives" : [
                {
                    "attributes" : {
                        "POSITION" : 19,
                        "NORMAL" : 20,
                        "TEXCOORD_0" : 21
                    },
                    "indices" : 18,
                    "material" : 0
                }
            ]
        },
        {
            "name" : "Cube.003",
            "primitives" : [
                {
                    "attributes" : {
                        "POSITION" : 22,
                        "NORMAL" : 23,
                        "TEXCOORD_0" : 24
                    },
                    "indices" : 18,
                    "material" : 0
                }
            ]
        },
        {
            "name" : "Cube.004",
            "primitives" : [
                {
                    "attributes" : {
                        "POSITION" : 25,
                        "NORMAL" : 26,
                        "TEXCOORD_0" : 27
                    },
                    "indices" : 18,
                    "material" : 0
                }
            ]
        },
        {
            "name" : "Plane.003",
            "primitives" : [
                {
                    "attributes" : {
                        "POSITION" : 28,
                        "NORMAL" : 29,
                        "TEXCOORD_0" : 30
                    },
                    "indices" : 7
                }
            ]
        }
    ],
    "textures" : [
        {
            "sampler" : 0,
            "source" : 0
        }
    ],
    "images" : [
        {
            "bufferView" : 4,
            "mimeType" : "image/png",
            "name" : "uvpalette"
        }
    ],
    "accessors" : [
        {
            "bufferView" : 0,
            "componentType" : 5126,
            "count" : 28,
            "max" : [
                3.1239421367645264,
                7.913170563256244e-09,
                1
            ],
            "min" : [
                -1,
                -3.773826051656215e-08,
                -1
            ],
            "type" : "VEC3"
        },
        {
            "bufferView" : 1,
            "componentType" : 5126,
            "count" : 28,
            "type" : "VEC3"
        },
        {
            "bufferView" : 2,
            "componentType" : 5126,
            "count" : 28,
            "type" : "VEC2"
        },
        {
            "bufferView" : 3,
            "componentType" : 5123,
            "count" : 42,
            "type" : "SCALAR"
        },
        {
            "bufferView" : 5,
            "componentType" : 5126,
            "count" : 4,
            "max" : [
                1,
                0,
                1
            ],
            "min" : [
                -1,
                0,
                -1
            ],
            "type" : "VEC3"
        },
        {
            "bufferView" : 6,
            "componentType" : 5126,
            "count" : 4,
            "type" : "VEC3"
        },
        {
            "bufferView" : 7,
            "componentType" : 5126,
            "count" : 4,
            "type" : "VEC2"
        },
        {
            "bufferView" : 8,
            "componentType" : 5123,
            "count" : 6,
            "type" : "SCALAR"
        },
        {
            "bufferView" : 9,
            "componentType" : 5126,
            "count" : 4,
            "max" : [
                1,
                0,
                1
            ],
            "min" : [
                -1,
                0,
                -1
            ],
            "type" : "VEC3"
        },
        {
            "bufferView" : 10,
            "componentType" : 5126,
            "count" : 4,
            "type" : "VEC3"
        },
        {
            "bufferView" : 11,
            "componentType" : 5126,
            "count" : 4,
            "type" : "VEC2"
        },
        {
            "bufferView" : 12,
            "componentType" : 5126,
            "count" : 244,
            "max" : [
                24.04275131225586,
                1,
                1
            ],
            "min" : [
                -1.043310284614563,
                -23.481752395629883,
                -1
            ],
            "type" : "VEC3"
        },
        {
            "bufferView" : 13,
            "componentType" : 5126,
            "count" : 244,
            "type" : "VEC3"
        },
        {
            "bufferView" : 14,
            "componentType" : 5126,
            "count" : 244,
            "type" : "VEC2"
        },
        {
            "bufferView" : 15,
            "componentType" : 5123,
            "count" : 516,
            "type" : "SCALAR"
        },
        {
            "bufferView" : 16,
            "componentType" : 5126,
            "count" : 24,
            "max" : [
                1,
                1,
                1
            ],
            "min" : [
                -1,
                -1,
                -1
            ],
            "type" : "VEC3"
        },
        {
            "bufferView" : 17,
            "componentType" : 5126,
            "count" : 24,
            "type" : "VEC3"
        },
        {
            "bufferView" : 18,
            "componentType" : 5126,
            "count" : 24,
            "type" : "VEC2"
        },
        {
            "bufferView" : 19,
            "componentType" : 5123,
            "count" : 36,
            "type" : "SCALAR"
        },
        {
            "bufferView" : 20,
            "componentType" : 5126,
            "count" : 24,
            "max" : [
                1,
                1,
                1
            ],
            "min" : [
                -1,
                -1,
                -1
            ],
            "type" : "VEC3"
        },
        {
            "bufferView" : 21,
            "componentType" : 5126,
            "count" : 24,
            "type" : "VEC3"
        },
        {
            "bufferView" : 22,
            "componentType" : 5126,
            "count" : 24,
            "type" : "VEC2"
        },
        {
            "bufferView" : 23,
            "componentType" : 5126,
            "count" : 24,
            "max" : [
                1,
                1,
                1
            ],
            "min" : [
                -1,
                -1,
                -1
            ],
            "type" : "VEC3"
        },
        {
            "bufferView" : 24,
            "componentType" : 5126,
            "count" : 24,
            "type" : "VEC3"
        },
        {
            "bufferView" : 25,
            "componentType" : 5126,
            "count" : 24,
            "type" : "VEC2"
        },
        {
            "bufferView" : 26,
            "componentType" : 5126,
            "count" : 24,
            "max" : [
                1,
                1,
                1.167101502418518
            ],
            "min" : [
                -1,
                -1,
                -0.8328984975814819
            ],
            "type" : "VEC3"
        },
        {
            "bufferView" : 27,
            "componentType" : 5126,
            "count" : 24,
            "type" : "VEC3"
        },
        {
            "bufferView" : 28,
            "componentType" : 5126,
            "count" : 24,
            "type" : "VEC2"
        },
        {
            "bufferView" : 29,
            "componentType" : 5126,
            "count" : 4,
            "max" : [
                1,
                0,
                1
            ],
            "min" : [
                -1,
                0,
                -1
            ],
            "type" : "VEC3"
        },
        {
            "bufferView" : 30,
            "componentType" : 5126,
            "count" : 4,
            "type" : "VEC3"
        },
        {
            "bufferView" : 31,
            "componentType" : 5126,
            "count" : 4,
            "type" : "VEC2"
        }
    ],
    "bufferViews" : [
        {
            "buffer" : 0,
            "byteLength" : 336,
            "byteOffset" : 0
        },
        {
            "buffer" : 0,
            "byteLength" : 336,
            "byteOffset" : 336
        },
        {
            "buffer" : 0,
            "byteLength" : 224,
            "byteOffset" : 672
        },
        {
            "buffer" : 0,
            "byteLength" : 84,
            "byteOffset" : 896
        },
        {
            "buffer" : 0,
            "byteLength" : 1374,
            "byteOffset" : 980
        },
        {
            "buffer" : 0,
            "byteLength" : 48,
            "byteOffset" : 2356
        },
        {
            "buffer" : 0,
            "byteLength" : 48,
            "byteOffset" : 2404
        },
        {
            "buffer" : 0,
            "byteLength" : 32,
            "byteOffset" : 2452
        },
        {
            "buffer" : 0,
            "byteLength" : 12,
            "byteOffset" : 2484
        },
        {
            "buffer" : 0,
            "byteLength" : 48,
            "byteOffset" : 2496
        },
        {
            "buffer" : 0,
            "byteLength" : 48,
            "byteOffset" : 2544
        },
        {
            "buffer" : 0,
            "byteLength" : 32,
            "byteOffset" : 2592
        },
        {
            "buffer" : 0,
            "byteLength" : 2928,
            "byteOffset" : 2624
        },
        {
            "buffer" : 0,
            "byteLength" : 2928,
            "byteOffset" : 5552
        },
        {
            "buffer" : 0,
            "byteLength" : 1952,
            "byteOffset" : 8480
        },
        {
            "buffer" : 0,
            "byteLength" : 1032,
            "byteOffset" : 10432
        },
        {
            "buffer" : 0,
            "byteLength" : 288,
            "byteOffset" : 11464
        },
        {
            "buffer" : 0,
            "byteLength" : 288,
            "byteOffset" : 11752
        },
        {
            "buffer" : 0,
            "byteLength" : 192,
            "byteOffset" : 12040
        },
        {
            "buffer" : 0,
            "byteLength" : 72,
            "byteOffset" : 12232
        },
        {
            "buffer" : 0,
            "byteLength" : 288,
            "byteOffset" : 12304
        },
        {
            "buffer" : 0,
            "byteLength" : 288,
            "byteOffset" : 12592
        },
        {
            "buffer" : 0,
            "byteLength" : 192,
            "byteOffset" : 12880
        },
        {
            "buffer" : 0,
            "byteLength" : 288,
            "byteOffset" : 13072
        },
        {
            "buffer" : 0,
            "byteLength" : 288,
            "byteOffset" : 13360
        },
        {
            "buffer" : 0,
            "byteLength" : 192,
            "byteOffset" : 13648
        },
        {
            "buffer" : 0,
            "byteLength" : 288,
            "byteOffset" : 13840
        },
        {
            "buffer" : 0,
            "byteLength" : 288,
            "byteOffset" : 14128
        },
        {
            "buffer" : 0,
            "byteLength" : 192,
            "byteOffset" : 14416
        },
        {
            "buffer" : 0,
            "byteLength" : 48,
            "byteOffset" : 14608
        },
        {
            "buffer" : 0,
            "byteLength" : 48,
            "byteOffset" : 14656
        },
        {
            "buffer" : 0,
            "byteLength" : 32,
            "byteOffset" : 14704
        }
    ],
    "samplers" : [
        {
            "magFilter" : 9728,
            "minFilter" : 9984
        }
    ],
    "buffers" : [
        {
            "byteLength" : 14736,
            "uri" : "data:application/octet-stream;base64,"
        }
    ]
}
